<?xml version="1.0"?><svg width="640" height="480" xmlns="http://www.w3.org/2000/svg" xmlns:xlink="http://www.w3.org/1999/xlink">
 <defs>
  <linearGradient id="linearGradient10342">
   <stop stop-color="#67e869" id="stop10343" offset="0"/>
   <stop stop-color="#1a4c00" id="stop10344" offset="1"/>
  </linearGradient>
  <linearGradient id="linearGradient9715">
   <stop stop-color="#67ff69" id="stop9716" offset="0"/>
   <stop stop-color="#1a7600" id="stop9717" offset="1"/>
  </linearGradient>
  <linearGradient y2="0.520943" x2="0.647445" y1="0.520943" x1="0.910784" gradientTransform="scale(0.960626,1.040988)" id="linearGradient3257" xlink:href="#linearGradient10342"/>
  <radialGradient r="222.30843" fy="207.33389" fx="248.07079" cy="211.65408" cx="243.22121" gradientTransform="scale(0.9254224,1.0805876)" gradientUnits="userSpaceOnUse" id="radialGradient3259" xlink:href="#linearGradient9715"/>
 </defs>
 <metadata id="metadata4">image/svg+xmlBalloons2004-08-30Jean-Victor Balinjean.victor.balin@gmail.comfr-FRballoonsparty</metadata>
 <g>
  <path fill="#000000" fill-rule="evenodd" stroke-width="2.664401" stroke-linecap="round" stroke-linejoin="round" stroke-miterlimit="4" d="m206.007599,270.148346c-0.490402,0.032959 -0.922806,0.333252 -1.125,0.78125c-8.053574,16.982025 -4.449371,33.265076 3.875,47.71875c8.324371,14.453674 21.344788,27.249298 32.34375,37.8125c21.200806,20.249481 22.188965,50.038635 16.78125,77.21875c-0.001953,0.041626 -0.001953,0.083374 0,0.125c-4.094757,34.412018 -1.250488,74.136108 26.625,99.124969c11.163696,10.307373 22.525604,23.743347 28.71875,38.25c6.193146,14.506653 7.281403,29.949951 -2,44.84375c-0.01059,0.010254 -0.020996,0.02063 -0.03125,0.03125c-2.138916,3.61322 -4.772919,6.910522 -7.875,9.71875c-0.400574,0.304565 -0.595367,0.808777 -0.503601,1.303589c0.091736,0.494751 0.454407,0.895569 0.937561,1.036255c0.483154,0.140625 1.004303,-0.00293 1.34729,-0.371094c3.314667,-3.000732 6.139465,-6.514526 8.40625,-10.34375c9.771881,-15.680908 8.608948,-32.208557 2.1875,-47.25c-6.421448,-15.041443 -18.059174,-28.710815 -29.40625,-39.1875c-26.87027,-24.087738 -29.814178,-62.743927 -25.78125,-96.749969c0.003632,-0.030579 -0.003632,-0.063171 0,-0.09375c5.473083,-27.586548 4.5271,-58.464142 -17.5625,-79.5625c-10.978546,-10.54361 -23.811356,-23.217804 -31.875,-37.21875c-8.063644,-14.000946 -11.423935,-29.165619 -3.78125,-45.28125c0.204239,-0.42569 0.167923,-0.927673 -0.095459,-1.31955c-0.263397,-0.391846 -0.714493,-0.615051 -1.185791,-0.5867z" id="path10369"/>
  <path fill="url(#linearGradient3257)" fill-rule="evenodd" stroke-width="1pt" d="m183.435898,266.751801c4.206558,3.229279 5.787094,8.672852 6.322876,13.732056c0.421082,2.241119 0.08403,4.500916 0.122223,6.751709c0.012146,1.656921 0.943298,3.921326 2.975616,3.489349c1.431702,-0.378754 2.652237,-1.334839 3.855606,-2.181488c3.062515,-2.437286 5.281693,-6.202423 9.234924,-7.322662c3.278732,-0.636871 6.891068,-0.673492 9.619751,-2.865143c1.859573,-1.325287 1.388672,-4.290527 -0.819992,-4.946289c-2.277832,-1.014832 -4.882111,-1.359741 -6.822021,-3.055542c-4.985962,-3.396881 -8.09169,-8.83197 -10.204071,-14.353851c-1.147598,-2.022766 -4.18576,-1.464966 -5.334259,0.27655c-2.68866,3.138062 -3.544785,7.805054 -7.394562,9.914063c-0.488861,0.258789 -1.013489,0.451813 -1.556091,0.561249z" id="path9092"/>
  <path fill="url(#radialGradient3259)" fill-rule="evenodd" stroke-width="1pt" d="m213.604095,88.109932c41.599213,59.781212 33.625336,137.34124 -17.798859,173.125084c-51.42421,35.783875 -126.921455,16.307739 -168.520676,-43.473465c-41.599216,-59.781219 -33.625327,-137.341255 17.798878,-173.125111c51.424191,-35.783851 126.921429,-16.307722 168.520657,43.473492z" id="path9093"/>
  <title>Layer 1</title>
 </g>
</svg>